<svg width="32" height="32" viewBox="0 0 32 32" fill="none" xmlns="http://www.w3.org/2000/svg">
  <!-- Background -->
  <rect width="32" height="32" rx="6" fill="#0F172A"/>
  
  <!-- Code brackets -->
  <path d="M8 12L5 16L8 20" stroke="#10B981" stroke-width="2" stroke-linecap="round" stroke-linejoin="round"/>
  <path d="M24 12L27 16L24 20" stroke="#10B981" stroke-width="2" stroke-linecap="round" stroke-linejoin="round"/>
  
  <!-- AI Neural center -->
  <circle cx="16" cy="14" r="2" fill="none" stroke="#10B981" stroke-width="1.5"/>
  <circle cx="16" cy="14" r="0.5" fill="#10B981"/>
  
  <!-- Neural connections -->
  <path d="M14 12L12 10" stroke="#10B981" stroke-width="1" stroke-linecap="round"/>
  <path d="M18 12L20 10" stroke="#10B981" stroke-width="1" stroke-linecap="round"/>
  <path d="M14 16L12 18" stroke="#10B981" stroke-width="1" stroke-linecap="round"/>
  <path d="M18 16L20 18" stroke="#10B981" stroke-width="1" stroke-linecap="round"/>
  
  <!-- Nodes -->
  <circle cx="12" cy="10" r="0.5" fill="#10B981"/>
  <circle cx="20" cy="10" r="0.5" fill="#10B981"/>
  <circle cx="12" cy="18" r="0.5" fill="#10B981"/>
  <circle cx="20" cy="18" r="0.5" fill="#10B981"/>
  
  <!-- Terminal -->
  <rect x="10" y="22" width="12" height="6" rx="1" fill="none" stroke="#10B981" stroke-width="1"/>
  <path d="M12 24L13 25L12 26" stroke="#10B981" stroke-width="0.8" stroke-linecap="round" stroke-linejoin="round"/>
  <line x1="14.5" y1="26" x2="17" y2="26" stroke="#10B981" stroke-width="0.8" stroke-linecap="round"/>
</svg>
