<svg width="40" height="40" viewBox="0 0 40 40" fill="none" xmlns="http://www.w3.org/2000/svg">
  <!-- White monochrome variant for dark backgrounds -->
  <circle cx="20" cy="20" r="18" fill="white" fill-opacity="0.08" stroke="white" stroke-width="2"/>
  <path d="M12 15L8 20L12 25" stroke="white" stroke-width="2" stroke-linecap="round" stroke-linejoin="round"/>
  <path d="M28 15L32 20L28 25" stroke="white" stroke-width="2" stroke-linecap="round" stroke-linejoin="round"/>
  <circle cx="20" cy="18" r="3" stroke="white" stroke-width="1.5"/>
  <circle cx="20" cy="18" r="1" fill="white"/>
  <path d="M17 16L15 14" stroke="white" stroke-width="1" stroke-linecap="round"/>
  <path d="M23 16L25 14" stroke="white" stroke-width="1" stroke-linecap="round"/>
  <path d="M17 20L15 22" stroke="white" stroke-width="1" stroke-linecap="round"/>
  <path d="M23 20L25 22" stroke="white" stroke-width="1" stroke-linecap="round"/>
  <circle cx="15" cy="14" r="1" fill="white"/>
  <circle cx="25" cy="14" r="1" fill="white"/>
  <circle cx="15" cy="22" r="1" fill="white"/>
  <circle cx="25" cy="22" r="1" fill="white"/>
  <rect x="14" y="26" width="12" height="6" rx="1" stroke="white" stroke-width="1"/>
  <path d="M16 28L17.5 29L16 30" stroke="white" stroke-width="1" stroke-linecap="round" stroke-linejoin="round"/>
  <line x1="19" y1="30" x2="22" y2="30" stroke="white" stroke-width="1" stroke-linecap="round"/>
</svg>
