<svg width="500" height="500" viewBox="0 0 500 500" fill="none" xmlns="http://www.w3.org/2000/svg">
  <defs>
    <linearGradient id="logoGradient" x1="0%" y1="0%" x2="100%" y2="100%">
      <stop offset="0%" style="stop-color:#3B82F6;stop-opacity:1" />
      <stop offset="50%" style="stop-color:#1D4ED8;stop-opacity:1" />
      <stop offset="100%" style="stop-color:#1E40AF;stop-opacity:1" />
    </linearGradient>
    <linearGradient id="logoGradientLight" x1="0%" y1="0%" x2="100%" y2="100%">
      <stop offset="0%" style="stop-color:#60A5FA;stop-opacity:1" />
      <stop offset="50%" style="stop-color:#3B82F6;stop-opacity:1" />
      <stop offset="100%" style="stop-color:#2563EB;stop-opacity:1" />
    </linearGradient>
  </defs>
  
  <!-- Círculo de fundo -->
  <circle cx="250" cy="250" r="240" fill="url(#logoGradient)" stroke="none"/>
  
  <!-- Letras JM estilizadas -->
  <g transform="translate(125, 150)">
    <!-- Letra J -->
    <path d="M20 20 Q20 10 30 10 L80 10 Q90 10 90 20 L90 120 Q90 150 60 150 Q30 150 30 120 Q30 110 40 110 Q50 110 50 120 Q50 130 60 130 Q70 130 70 120 L70 30 L40 30 Q30 30 30 20 Q30 10 20 20 Z" 
          fill="white" 
          stroke="none"/>
    
    <!-- Letra M -->
    <path d="M120 20 Q120 10 130 10 L140 10 Q150 10 150 20 L175 80 L200 20 Q200 10 210 10 L220 10 Q230 10 230 20 L230 140 Q230 150 220 150 Q210 150 210 140 L210 50 L190 100 Q185 110 175 110 Q165 110 160 100 L140 50 L140 140 Q140 150 130 150 Q120 150 120 140 L120 20 Z" 
          fill="white" 
          stroke="none"/>
  </g>
  
  <!-- Elementos decorativos - pontos de código -->
  <circle cx="400" cy="150" r="4" fill="rgba(255,255,255,0.6)"/>
  <circle cx="420" cy="170" r="3" fill="rgba(255,255,255,0.4)"/>
  <circle cx="430" cy="190" r="2" fill="rgba(255,255,255,0.3)"/>
  
  <circle cx="100" cy="350" r="3" fill="rgba(255,255,255,0.5)"/>
  <circle cx="80" cy="370" r="2" fill="rgba(255,255,255,0.3)"/>
  
  <!-- Elemento tech - pequeno bracket -->
  <path d="M350 320 L360 320 L360 340 L350 340 M350 330 L340 330" 
        stroke="rgba(255,255,255,0.4)" 
        stroke-width="2" 
        fill="none"/>
</svg>
