<svg xmlns="http://www.w3.org/2000/svg" xmlns:xlink="http://www.w3.org/1999/xlink" width="500" zoomAndPan="magnify" viewBox="0 0 375 374.999991" height="500" preserveAspectRatio="xMidYMid meet" version="1.2"><defs><clipPath id="ec32323f37"><path d="M 0 0 L 368.25 0 L 368.25 375 L 0 375 Z M 0 0 "/></clipPath></defs><g id="866888b522"><g clip-rule="nonzero" clip-path="url(#ec32323f37)"><path style=" stroke:none;fill-rule:nonzero;fill:#04e1f9;fill-opacity:1;" d="M 206.78125 0.277344 C 282.050781 20.300781 337.515625 88.894531 337.515625 170.46875 C 337.515625 267.742188 258.660156 346.597656 161.382812 346.597656 C 89.207031 346.597656 27.207031 303.164062 0 241.019531 C 23.347656 318.4375 95.175781 374.832031 180.207031 374.832031 C 284.164062 374.832031 368.4375 290.558594 368.4375 186.601562 C 368.4375 91.671875 298.148438 13.191406 206.78125 0.277344 "/></g><path style=" stroke:none;fill-rule:nonzero;fill:#ffffff;fill-opacity:1;" d="M 195.371094 108.796875 L 195.371094 135.414062 L 217.78125 135.414062 L 217.78125 274.941406 C 238.429688 263.105469 255.753906 246.121094 267.976562 225.71875 L 267.976562 93.285156 L 195.371094 108.796875 "/><path style=" stroke:none;fill-rule:nonzero;fill:#ffffff;fill-opacity:1;" d="M 225.644531 26.75 C 269.175781 52.796875 298.332031 100.398438 298.332031 154.816406 C 298.332031 216.679688 260.667969 269.746094 207.023438 292.339844 L 207.023438 146.167969 L 134.421875 161.679688 L 134.421875 202.636719 L 156.828125 202.636719 L 156.828125 303.789062 C 154.289062 303.917969 151.734375 303.980469 149.167969 303.980469 C 148.128906 303.980469 147.105469 303.949219 146.074219 303.929688 L 146.074219 213.394531 L 73.46875 228.90625 L 73.46875 283.371094 C 48.121094 268.410156 27.582031 246.179688 14.734375 219.535156 C 35.417969 281.695312 94.019531 326.539062 163.132812 326.539062 C 249.515625 326.539062 319.542969 256.511719 319.542969 170.128906 C 319.542969 105.976562 280.902344 50.875 225.644531 26.75 "/></g></svg>